<svg width="50" height="50" xmlns="http://www.w3.org/2000/svg">

 <g>
  <title>background</title>
  <rect fill="none" id="canvas_background" height="402" width="582" y="-1" x="-1"/>
 </g>
 <g>
  <title>Layer 1</title>
  <path fill="#0afcca" id="svg_1" d="m9.94,18.847l-6.666,-1.904l-2.274,-0.039l0,16l2.14,0l6.801,-1.943l5.06,2.083l0,7.509l10.222,4.543l3.778,-3.779l0,-2.509l14.801,6.096l5.198,0l0,-40l-5.198,0l-33.862,13.943zm-6.94,12.017l0,-11.92l6,1.714l0,8.491l-6,1.715zm24,9.626l-2.222,2.221l-7.778,-3.457l0,-5.386l10,4.118l0,2.504zm20,-33.586l0,36l-2.802,0l-33.198,-13.67l0,-8.66l33.198,-13.67l2.802,0z"/>
 </g>
</svg>