<svg width="50" height="50" xmlns="http://www.w3.org/2000/svg">

 <g>
  <title>background</title>
  <rect fill="none" id="canvas_background" height="402" width="582" y="-1" x="-1"/>
 </g>
 <g>
  <title>Layer 1</title>
  <path fill="#0afcca" id="svg_1" d="m27,26c0,-5.738 -3.742,-10.612 -8.911,-12.331c1.76,-1.273 2.911,-3.337 2.911,-5.669c0,-3.859 -3.141,-7 -7,-7s-7,3.141 -7,7c0,2.332 1.151,4.396 2.911,5.669c-5.169,1.719 -8.911,6.593 -8.911,12.331l0,1l26,0l0,-1zm-18,-18c0,-2.757 2.243,-5 5,-5s5,2.243 5,5s-2.243,5 -5,5s-5,-2.243 -5,-5zm-5.955,17c0.507,-5.599 5.226,-10 10.955,-10s10.448,4.401 10.955,10l-21.91,0z"/>
  <path fill="#0afcca" id="svg_2" d="m40.089,35.669c1.76,-1.273 2.911,-3.337 2.911,-5.669c0,-3.859 -3.141,-7 -7,-7s-7,3.141 -7,7c0,2.332 1.151,4.396 2.911,5.669c-5.169,1.719 -8.911,6.593 -8.911,12.331l0,1l26,0l0,-1c0,-5.738 -3.742,-10.612 -8.911,-12.331zm-9.089,-5.669c0,-2.757 2.243,-5 5,-5s5,2.243 5,5s-2.243,5 -5,5s-5,-2.243 -5,-5zm-5.955,17c0.507,-5.599 5.226,-10 10.955,-10s10.448,4.401 10.955,10l-21.91,0z"/>
  <polygon fill="#0afcca" id="svg_3" points="37,19 37,7 28.414,7 31.707,3.707 30.293,2.293 24.586,8 30.293,13.707 31.707,12.293 28.414,9 35,9 35,19  "/>
  <polygon fill="#0afcca" id="svg_4" points="12.293,37.707 15.586,41 9,41 9,31 7,31 7,43 15.586,43 12.293,46.293 13.707,47.707 19.414,42 13.707,36.293  "/>
 </g>
</svg>