<svg width="50" height="50" xmlns="http://www.w3.org/2000/svg">

 <g>
  <title>background</title>
  <rect fill="none" id="canvas_background" height="402" width="582" y="-1" x="-1"/>
 </g>
 <g>
  <title>Layer 1</title>
  <path fill="#0afcca" id="svg_1" d="m45,5c-2.206,0 -4,1.794 -4,4l0,13.004c-0.958,0.042 -1.853,0.435 -2.535,1.117l-7.465,7.465l0,18.414l13,0l0,-11.586l5,-5l0,-23.414c0,-2.206 -1.794,-4 -4,-4zm2,26.586l-5,5l0,10.414l-9,0l0,-15.586l6.879,-6.879c0.34,-0.34 0.811,-0.535 1.293,-0.535c1.008,0 1.828,0.82 1.828,1.828c0,0.481 -0.195,0.953 -0.535,1.293l-4.172,4.172l1.414,1.414l4.172,-4.172c0.723,-0.723 1.121,-1.684 1.121,-2.707c0,-1.449 -0.81,-2.713 -2,-3.362l0,-13.466c0,-1.103 0.897,-2 2,-2s2,0.897 2,2l0,22.586z"/>
  <path fill="#0afcca" id="svg_2" d="m9,22.004l0,-13.004c0,-2.206 -1.794,-4 -4,-4s-4,1.794 -4,4l0,23.414l5,5l0,11.586l13,0l0,-18.414l-7.465,-7.465c-0.682,-0.683 -1.577,-1.075 -2.535,-1.117zm8,24.996l-9,0l0,-10.414l-5,-5l0,-22.586c0,-1.103 0.897,-2 2,-2s2,0.897 2,2l0,13.466c-1.19,0.649 -2,1.913 -2,3.362c0,1.022 0.398,1.984 1.121,2.707l4.172,4.172l1.414,-1.414l-4.172,-4.172c-0.34,-0.34 -0.535,-0.811 -0.535,-1.293c0,-1.008 0.82,-1.828 1.828,-1.828c0.481,0 0.953,0.195 1.293,0.535l6.879,6.879l0,15.586z"/>
  <path fill="#0afcca" id="svg_3" d="m20,4c0,-1.654 -1.346,-3 -3,-3s-3,1.346 -3,3c0,1.302 0.839,2.402 2,2.816l0,2.598l4,4l0,2.586l2,0l0,-3.414l-4,-4l0,-1.77c1.161,-0.414 2,-1.514 2,-2.816zm-3,-1c0.552,0 1,0.448 1,1s-0.448,1 -1,1s-1,-0.448 -1,-1s0.448,-1 1,-1z"/>
  <path fill="#0afcca" id="svg_4" d="m26,16l0,-9.184c1.161,-0.414 2,-1.514 2,-2.816c0,-1.654 -1.346,-3 -3,-3s-3,1.346 -3,3c0,1.302 0.839,2.402 2,2.816l0,9.184l2,0zm-1,-13c0.552,0 1,0.448 1,1s-0.448,1 -1,1s-1,-0.448 -1,-1s0.448,-1 1,-1z"/>
  <path fill="#0afcca" id="svg_5" d="m34,6.816c1.161,-0.414 2,-1.514 2,-2.816c0,-1.654 -1.346,-3 -3,-3s-3,1.346 -3,3c0,1.302 0.839,2.402 2,2.816l0,1.77l-4,4l0,3.414l2,0l0,-2.586l4,-4l0,-2.598zm-1,-3.816c0.552,0 1,0.448 1,1s-0.448,1 -1,1s-1,-0.448 -1,-1s0.448,-1 1,-1z"/>
  <polygon fill="#0afcca" id="svg_6" points="34,14 32,14 32,18 18,18 18,14 16,14 16,20 34,20  "/>
 </g>
</svg>